<svg width="178" height="39" viewBox="0 0 178 39" fill="none" xmlns="http://www.w3.org/2000/svg">
<path d="M7.31284 9.12589H0.0714111V30.2392H7.31284V9.12589Z" fill="white"/>
<path d="M33.2252 9.12589L24.7769 30.2392H18.2454L9.65503 9.12589H17.6064L21.5821 21.6084L25.4868 9.12589H33.2252Z" fill="white"/>
<path d="M33.3672 19.6825C33.3672 13.1202 38.2658 8.41254 45.1523 8.41254C51.9677 8.41254 56.9374 13.1202 56.9374 19.6825C56.9374 26.1734 51.9677 30.9524 45.1523 30.9524C38.2658 30.9524 33.3672 26.1734 33.3672 19.6825ZM45.1523 24.3902C47.7791 24.3902 49.6959 22.4643 49.6959 19.6825C49.6959 16.9006 47.7791 14.9748 45.1523 14.9748C42.5255 14.9748 40.6086 16.9006 40.6086 19.6825C40.6086 22.4643 42.5255 24.3902 45.1523 24.3902Z" fill="white"/>
<path d="M73.9762 8.98321V15.6168H71.1365C68.5807 15.6168 67.5157 16.758 67.5157 19.4685V30.2392H60.2743V9.12587H65.1019L66.2378 11.4797C67.7287 9.76782 69.5036 9.05454 72.0594 9.05454H73.9762V8.98321Z" fill="white"/>
<path d="M98.8242 9.12584L90.0209 29.3119C87.1811 35.8028 84.5543 38.0853 79.1588 38.0853H76.6739V31.8084H78.6618C81.4306 31.8084 82.2825 31.0951 83.2764 28.4559L74.6151 9.05451H82.4955L86.9681 20.6811L91.1568 9.05451H98.8242V9.12584Z" fill="white"/>
<path d="M108.266 30.9524C102.516 30.9524 99.0372 27.8853 98.9662 23.3202H105.924C105.924 24.8895 106.989 25.6027 108.337 25.6027C109.402 25.6027 110.396 25.0321 110.396 23.9622C110.396 22.7496 108.834 22.393 106.776 22.0363C103.51 21.537 99.1792 20.5384 99.1792 15.4027C99.1792 11.1944 102.8 8.41254 108.124 8.41254C113.449 8.41254 116.928 11.2657 116.999 15.5454H110.183C110.183 14.1902 109.26 13.5482 107.983 13.5482C106.847 13.5482 106.066 14.1188 106.066 15.1174C106.066 16.33 107.699 16.6153 109.686 16.972C113.023 17.5426 117.425 18.2559 117.425 23.6055C117.567 28.0279 113.804 30.9524 108.266 30.9524Z" fill="white"/>
<path d="M119.697 19.6825C119.697 13.1202 124.595 8.41254 131.482 8.41254C138.297 8.41254 143.267 13.1202 143.267 19.6825C143.267 26.1734 138.297 30.9524 131.482 30.9524C124.666 30.9524 119.697 26.1734 119.697 19.6825ZM131.482 24.3902C134.108 24.3902 136.025 22.4643 136.025 19.6825C136.025 16.9006 134.108 14.9748 131.482 14.9748C128.855 14.9748 126.938 16.9006 126.938 19.6825C126.938 22.4643 128.855 24.3902 131.482 24.3902Z" fill="white"/>
<path d="M160.305 15.1888H155.62V30.2391H148.378V15.1888H144.899V9.48249H148.449V7.48529C148.449 3.27689 150.792 0.780388 155.194 0.780388H160.234V6.34402H157.039C155.975 6.34402 155.336 6.98598 155.336 8.05591V9.48249H160.305V15.1888Z" fill="white"/>
<path d="M177.486 23.8908V30.239H172.516C172.091 30.239 169.322 30.453 167.05 28.2418C164.778 25.9593 164.991 23.0348 164.991 22.6782C164.991 18.3271 164.92 13.9761 164.92 9.62505C166.837 7.41386 168.683 5.13134 170.6 2.92015H172.091C172.091 2.92015 171.949 17.2572 171.878 21.3229C171.878 21.5369 172.091 22.4642 172.942 23.1775C173.723 23.8194 174.504 23.8195 174.717 23.8195H177.486V23.8908Z" fill="white"/>
</svg>
