<svg width="182" height="42" viewBox="0 0 182 42" fill="none" xmlns="http://www.w3.org/2000/svg">
<path d="M7.31284 12.1259H0.0714111V33.2392H7.31284V12.1259Z" fill="white"/>
<path d="M33.2252 12.1259L24.7769 33.2392H18.2454L9.65503 12.1259H17.6064L21.5821 24.6084L25.4868 12.1259H33.2252Z" fill="white"/>
<path d="M33.3672 22.6825C33.3672 16.1202 38.2658 11.4125 45.1523 11.4125C51.9677 11.4125 56.9374 16.1202 56.9374 22.6825C56.9374 29.1734 51.9677 33.9524 45.1523 33.9524C38.2658 33.9524 33.3672 29.1734 33.3672 22.6825ZM45.1523 27.3902C47.7791 27.3902 49.6959 25.4643 49.6959 22.6825C49.6959 19.9006 47.7791 17.9748 45.1523 17.9748C42.5255 17.9748 40.6086 19.9006 40.6086 22.6825C40.6086 25.4643 42.5255 27.3902 45.1523 27.3902Z" fill="white"/>
<path d="M73.9762 11.9832V18.6168H71.1365C68.5807 18.6168 67.5157 19.758 67.5157 22.4685V33.2392H60.2743V12.1259H65.1019L66.2378 14.4797C67.7287 12.7678 69.5036 12.0545 72.0594 12.0545H73.9762V11.9832Z" fill="white"/>
<path d="M98.8242 12.1258L90.0209 32.3119C87.1811 38.8028 84.5543 41.0853 79.1588 41.0853H76.6739V34.8084H78.6618C81.4306 34.8084 82.2825 34.0951 83.2764 31.4559L74.6151 12.0545H82.4955L86.9681 23.6811L91.1568 12.0545H98.8242V12.1258Z" fill="white"/>
<path d="M108.266 33.9524C102.516 33.9524 99.0372 30.8853 98.9662 26.3202H105.924C105.924 27.8895 106.989 28.6027 108.337 28.6027C109.402 28.6027 110.396 28.0321 110.396 26.9622C110.396 25.7496 108.834 25.393 106.776 25.0363C103.51 24.537 99.1792 23.5384 99.1792 18.4027C99.1792 14.1944 102.8 11.4125 108.124 11.4125C113.449 11.4125 116.928 14.2657 116.999 18.5454H110.183C110.183 17.1902 109.26 16.5482 107.983 16.5482C106.847 16.5482 106.066 17.1188 106.066 18.1174C106.066 19.33 107.699 19.6153 109.686 19.972C113.023 20.5426 117.425 21.2559 117.425 26.6055C117.567 31.0279 113.804 33.9524 108.266 33.9524Z" fill="white"/>
<path d="M119.697 22.6825C119.697 16.1202 124.595 11.4125 131.482 11.4125C138.297 11.4125 143.267 16.1202 143.267 22.6825C143.267 29.1734 138.297 33.9524 131.482 33.9524C124.666 33.9524 119.697 29.1734 119.697 22.6825ZM131.482 27.3902C134.108 27.3902 136.025 25.4643 136.025 22.6825C136.025 19.9006 134.108 17.9748 131.482 17.9748C128.855 17.9748 126.938 19.9006 126.938 22.6825C126.938 25.4643 128.855 27.3902 131.482 27.3902Z" fill="white"/>
<path d="M160.305 18.1888H155.62V33.2391H148.378V18.1888H144.899V12.4825H148.449V10.4853C148.449 6.27689 150.792 3.78039 155.194 3.78039H160.234V9.34402H157.039C155.975 9.34402 155.336 9.98598 155.336 11.0559V12.4825H160.305V18.1888Z" fill="white"/>
<path d="M177.486 26.8908V33.239H172.516C172.091 33.239 169.322 33.453 167.05 31.2418C164.778 28.9593 164.991 26.0348 164.991 25.6782C164.991 21.3271 164.92 16.9761 164.92 12.625C166.837 10.4139 168.683 8.13134 170.6 5.92015H172.091C172.091 5.92015 171.949 20.2572 171.878 24.3229C171.878 24.5369 172.091 25.4642 172.942 26.1775C173.723 26.8194 174.504 26.8195 174.717 26.8195H177.486V26.8908Z" fill="white"/>
<path d="M3.7627 7.56084C5.84079 7.56084 7.52541 5.86829 7.52541 3.78042C7.52541 1.69255 5.84079 0 3.7627 0C1.68462 0 0 1.69255 0 3.78042C0 5.86829 1.68462 7.56084 3.7627 7.56084Z" fill="#DA4530"/>
<path d="M177.273 18.9735C179.351 18.9735 181.036 17.2809 181.036 15.1931C181.036 13.1052 179.351 11.4126 177.273 11.4126C175.195 11.4126 173.51 13.1052 173.51 15.1931C173.51 17.2809 175.195 18.9735 177.273 18.9735Z" fill="#DA4530"/>
</svg>
